<svg id="Layer_1" data-name="Layer 1" xmlns="http://www.w3.org/2000/svg" viewBox="0 0 876.67 206.78"><defs><style>.cls-1{fill:#301c0e;}.cls-2{fill:#79421b;}</style></defs><title>header</title><path class="cls-1" d="M54.17,452.83s41.67,76.5,142.5,63.67S308.33,476.17,375.83,462s100-18.33,165.83,15.83S722.5,539.5,844.17,472c0,0,52.5-37.5,86.67-38.33V311.17H54.17Z" transform="translate(-54.17 -311.17)"/><circle class="cls-2" cx="62.92" cy="44.67" r="27.92"/><circle class="cls-2" cx="99.38" cy="109.46" r="8.54"/><circle class="cls-2" cx="150.83" cy="150.08" r="26.67"/><circle class="cls-2" cx="137.08" cy="17.17" r="7.08"/><circle class="cls-2" cx="181.67" cy="56.75" r="15.83"/><circle class="cls-2" cx="203.85" cy="103.1" r="6.35"/><circle class="cls-2" cx="231.04" cy="25.71" r="8.54"/><circle class="cls-2" cx="268.33" cy="145.92" r="14.17"/><circle class="cls-2" cx="332.92" cy="123" r="8.75"/><circle class="cls-2" cx="312.08" cy="48" r="29.58"/><circle class="cls-2" cx="399.79" cy="32.37" r="15.62"/><circle class="cls-2" cx="428.18" cy="90.34" r="12.76"/><circle class="cls-2" cx="534.17" cy="140.92" r="9.17"/><circle class="cls-2" cx="526.25" cy="48" r="29.58"/><circle class="cls-2" cx="624.58" cy="56.33" r="15.42"/><circle class="cls-2" cx="583.13" cy="172.37" r="6.46"/><circle class="cls-2" cx="625" cy="120.08" r="30"/><circle class="cls-2" cx="689.58" cy="95.5" r="5.42"/><circle class="cls-2" cx="679.27" cy="33.31" r="7.6"/><circle class="cls-2" cx="759.58" cy="60.29" r="27.92"/><circle class="cls-2" cx="829.11" cy="110.55" r="7.45"/><circle class="cls-2" cx="845.55" cy="43.23" r="8.98"/></svg>